<?xml version="1.0" standalone="no"?>
<!DOCTYPE svg PUBLIC "-//W3C//DTD SVG 20010904//EN"
 "http://www.w3.org/TR/2001/REC-SVG-20010904/DTD/svg10.dtd">
<svg version="1.0" xmlns="http://www.w3.org/2000/svg"
 width="25.000000pt" height="25.000000pt" viewBox="0 0 25.000000 25.000000"
 preserveAspectRatio="xMidYMid meet">
<metadata>
Created by potrace 1.16, written by Peter Selinger 2001-2019
</metadata>
<g transform="translate(0.000000,25.000000) scale(0.003546,-0.003125)"
fill="#000000" stroke="none">
<path d="M1170 4494 l0 -2416 23 5 c27 7 4956 1007 4963 1007 2 0 4 419 4 930
l0 930 -265 0 -265 0 0 -747 0 -748 -1858 -349 c-1021 -192 -1863 -351 -1869
-354 -10 -3 -13 365 -13 1822 l0 1826 1130 0 1130 0 0 255 0 255 -1490 0
-1490 0 0 -2416z"/>
<path d="M4360 6530 l0 -250 280 0 280 0 0 250 0 250 -280 0 -280 0 0 -250z"/>
<path d="M255 6399 c-121 -27 -221 -49 -221 -49 -2 0 8 -56 42 -227 102 -521
429 -1680 875 -3105 51 -164 94 -296 96 -294 10 10 -550 3726 -562 3725 -5 -1
-109 -23 -230 -50z"/>
<path d="M5080 5545 l0 -245 225 0 225 0 0 245 0 245 -225 0 -225 0 0 -245z"/>
<path d="M4515 2534 c-16 -2 -77 -9 -135 -15 -222 -23 -475 -81 -772 -176
l-178 -57 0 -126 0 -127 -117 -42 c-638 -233 -1042 -640 -983 -990 36 -213
215 -385 511 -489 211 -75 430 -106 724 -106 236 1 386 16 605 60 937 188
1593 725 1450 1187 -51 166 -193 298 -423 397 -150 64 -446 130 -582 130 l-35
0 -2 177 c-3 193 0 184 -63 177z m232 -795 c85 -40 153 -97 194 -160 32 -51
34 -58 34 -144 0 -84 -2 -94 -35 -155 -131 -244 -545 -456 -993 -511 -61 -7
-167 -10 -280 -6 -209 6 -321 29 -455 93 -108 52 -194 139 -217 219 -53 181
63 361 335 525 46 28 87 50 92 50 4 0 8 -149 8 -330 l0 -330 98 49 c222 111
548 225 892 311 47 12 102 26 123 31 l37 10 0 204 0 204 53 -15 c28 -9 80 -29
114 -45z"/>
</g>
</svg>
